<svg xmlns="http://www.w3.org/2000/svg" xmlns:xlink="http://www.w3.org/1999/xlink" contentStyleType="text/css" height="435px" preserveAspectRatio="none" style="width:734px;height:435px;background:#FFFFFF;" version="1.1" viewBox="0 0 734 435" width="734px" zoomAndPan="magnify"><defs/><g><rect fill="#FFFFFF" height="170.6641" style="stroke:#181818;stroke-width:1.0;" width="10" x="64.9346" y="211.9609"/><rect fill="#FFFFFF" height="29.1328" style="stroke:#181818;stroke-width:1.0;" width="10" x="294.0044" y="110.5625"/><rect fill="#FFFFFF" height="29.1328" style="stroke:#181818;stroke-width:1.0;" width="10" x="294.0044" y="211.9609"/><rect fill="#FFFFFF" height="87.3984" style="stroke:#181818;stroke-width:1.0;" width="10" x="294.0044" y="295.2266"/><rect fill="#FFFFFF" height="29.1328" style="stroke:#181818;stroke-width:1.0;" width="10" x="669.8022" y="110.5625"/><rect fill="#FFFFFF" height="29.1328" style="stroke:#181818;stroke-width:1.0;" width="10" x="669.8022" y="324.3594"/><line style="stroke:#181818;stroke-width:0.5;stroke-dasharray:5.0,5.0;" x1="69" x2="69" y1="36.2969" y2="400.625"/><line style="stroke:#181818;stroke-width:0.5;stroke-dasharray:5.0,5.0;" x1="298.6416" x2="298.6416" y1="36.2969" y2="400.625"/><line style="stroke:#181818;stroke-width:0.5;stroke-dasharray:5.0,5.0;" x1="674.3369" x2="674.3369" y1="36.2969" y2="400.625"/><rect fill="#E2E2F0" height="30.2969" rx="2.5" ry="2.5" style="stroke:#181818;stroke-width:0.5;" width="129.8691" x="5" y="5"/><text fill="#000000" font-family="sans-serif" font-size="14" lengthAdjust="spacing" textLength="115.8691" x="12" y="24.9951">Cat Info Website</text><rect fill="#E2E2F0" height="30.2969" rx="2.5" ry="2.5" style="stroke:#181818;stroke-width:0.5;" width="129.8691" x="5" y="399.625"/><text fill="#000000" font-family="sans-serif" font-size="14" lengthAdjust="spacing" textLength="115.8691" x="12" y="419.6201">Cat Info Website</text><rect fill="#E2E2F0" height="30.2969" rx="2.5" ry="2.5" style="stroke:#181818;stroke-width:0.5;" width="178.7256" x="209.6416" y="5"/><text fill="#000000" font-family="sans-serif" font-size="14" lengthAdjust="spacing" textLength="164.7256" x="216.6416" y="24.9951">Cat Image Microservice</text><rect fill="#E2E2F0" height="30.2969" rx="2.5" ry="2.5" style="stroke:#181818;stroke-width:0.5;" width="178.7256" x="209.6416" y="399.625"/><text fill="#000000" font-family="sans-serif" font-size="14" lengthAdjust="spacing" textLength="164.7256" x="216.6416" y="419.6201">Cat Image Microservice</text><rect fill="#E2E2F0" height="30.2969" rx="2.5" ry="2.5" style="stroke:#181818;stroke-width:0.5;" width="94.9307" x="627.3369" y="5"/><text fill="#000000" font-family="sans-serif" font-size="14" lengthAdjust="spacing" textLength="80.9307" x="634.3369" y="24.9951">The Cat API</text><rect fill="#E2E2F0" height="30.2969" rx="2.5" ry="2.5" style="stroke:#181818;stroke-width:0.5;" width="94.9307" x="627.3369" y="399.625"/><text fill="#000000" font-family="sans-serif" font-size="14" lengthAdjust="spacing" textLength="80.9307" x="634.3369" y="419.6201">The Cat API</text><rect fill="#FFFFFF" height="170.6641" style="stroke:#181818;stroke-width:1.0;" width="10" x="64.9346" y="211.9609"/><rect fill="#FFFFFF" height="29.1328" style="stroke:#181818;stroke-width:1.0;" width="10" x="294.0044" y="110.5625"/><rect fill="#FFFFFF" height="29.1328" style="stroke:#181818;stroke-width:1.0;" width="10" x="294.0044" y="211.9609"/><rect fill="#FFFFFF" height="87.3984" style="stroke:#181818;stroke-width:1.0;" width="10" x="294.0044" y="295.2266"/><rect fill="#FFFFFF" height="29.1328" style="stroke:#181818;stroke-width:1.0;" width="10" x="669.8022" y="110.5625"/><rect fill="#FFFFFF" height="29.1328" style="stroke:#181818;stroke-width:1.0;" width="10" x="669.8022" y="324.3594"/><rect fill="#EEEEEE" height="3" style="stroke:#EEEEEE;stroke-width:1.0;" width="727.2676" x="0" y="66.8633"/><line style="stroke:#000000;stroke-width:1.0;" x1="0" x2="727.2676" y1="66.8633" y2="66.8633"/><line style="stroke:#000000;stroke-width:1.0;" x1="0" x2="727.2676" y1="69.8633" y2="69.8633"/><rect fill="#EEEEEE" height="23.1328" style="stroke:#000000;stroke-width:2.0;" width="110.624" x="308.3218" y="56.2969"/><text fill="#000000" font-family="sans-serif" font-size="13" font-weight="bold" lengthAdjust="spacing" textLength="92.0981" x="314.3218" y="72.3638">Initialization</text><polygon fill="#181818" points="657.8022,106.5625,667.8022,110.5625,657.8022,114.5625,661.8022,110.5625" style="stroke:#181818;stroke-width:1.0;"/><line style="stroke:#181818;stroke-width:1.0;" x1="304.0044" x2="663.8022" y1="110.5625" y2="110.5625"/><text fill="#000000" font-family="sans-serif" font-size="13" lengthAdjust="spacing" textLength="79.3584" x="311.0044" y="105.4966">GET /breeds</text><polygon fill="#181818" points="310.0044,135.6953,300.0044,139.6953,310.0044,143.6953,306.0044,139.6953" style="stroke:#181818;stroke-width:1.0;"/><line style="stroke:#181818;stroke-width:1.0;stroke-dasharray:2.0,2.0;" x1="304.0044" x2="673.8022" y1="139.6953" y2="139.6953"/><text fill="#000000" font-family="sans-serif" font-size="13" lengthAdjust="spacing" textLength="159.8975" x="316.0044" y="134.6294">Array with breed objects</text><rect fill="#EEEEEE" height="3" style="stroke:#EEEEEE;stroke-width:1.0;" width="727.2676" x="0" y="168.2617"/><line style="stroke:#000000;stroke-width:1.0;" x1="0" x2="727.2676" y1="168.2617" y2="168.2617"/><line style="stroke:#000000;stroke-width:1.0;" x1="0" x2="727.2676" y1="171.2617" y2="171.2617"/><rect fill="#EEEEEE" height="23.1328" style="stroke:#000000;stroke-width:2.0;" width="86.4204" x="320.4236" y="157.6953"/><text fill="#000000" font-family="sans-serif" font-size="13" font-weight="bold" lengthAdjust="spacing" textLength="67.8945" x="326.4236" y="173.7622">Requests</text><polygon fill="#181818" points="282.0044,207.9609,292.0044,211.9609,282.0044,215.9609,286.0044,211.9609" style="stroke:#181818;stroke-width:1.0;"/><line style="stroke:#181818;stroke-width:1.0;" x1="74.9346" x2="288.0044" y1="211.9609" y2="211.9609"/><text fill="#000000" font-family="sans-serif" font-size="13" lengthAdjust="spacing" textLength="79.3584" x="81.9346" y="206.895">GET /breeds</text><polygon fill="#181818" points="85.9346,237.0938,75.9346,241.0938,85.9346,245.0938,81.9346,241.0938" style="stroke:#181818;stroke-width:1.0;"/><line style="stroke:#181818;stroke-width:1.0;stroke-dasharray:2.0,2.0;" x1="79.9346" x2="298.0044" y1="241.0938" y2="241.0938"/><text fill="#000000" font-family="sans-serif" font-size="13" lengthAdjust="spacing" textLength="157.1553" x="91.9346" y="236.0278">Array with breed strings</text><polygon fill="#181818" points="282.0044,291.2266,292.0044,295.2266,282.0044,299.2266,286.0044,295.2266" style="stroke:#181818;stroke-width:1.0;"/><line style="stroke:#181818;stroke-width:1.0;" x1="74.9346" x2="288.0044" y1="295.2266" y2="295.2266"/><text fill="#000000" font-family="sans-serif" font-size="13" lengthAdjust="spacing" textLength="124.9854" x="81.9346" y="290.1606">GET /breeds/:name</text><polygon fill="#181818" points="657.8022,320.3594,667.8022,324.3594,657.8022,328.3594,661.8022,324.3594" style="stroke:#181818;stroke-width:1.0;"/><line style="stroke:#181818;stroke-width:1.0;" x1="304.0044" x2="663.8022" y1="324.3594" y2="324.3594"/><text fill="#000000" font-family="sans-serif" font-size="13" lengthAdjust="spacing" textLength="346.7979" x="311.0044" y="319.2935">GET /images/search?breed_ids=ID&amp;api_key=API_KEY</text><polygon fill="#181818" points="315.0044,349.4922,305.0044,353.4922,315.0044,357.4922,311.0044,353.4922" style="stroke:#181818;stroke-width:1.0;"/><line style="stroke:#181818;stroke-width:1.0;stroke-dasharray:2.0,2.0;" x1="309.0044" x2="673.8022" y1="353.4922" y2="353.4922"/><text fill="#000000" font-family="sans-serif" font-size="13" lengthAdjust="spacing" textLength="155.7715" x="321.0044" y="348.4263">Array with image object</text><polygon fill="#181818" points="80.9346,378.625,70.9346,382.625,80.9346,386.625,76.9346,382.625" style="stroke:#181818;stroke-width:1.0;"/><line style="stroke:#181818;stroke-width:1.0;stroke-dasharray:2.0,2.0;" x1="74.9346" x2="298.0044" y1="382.625" y2="382.625"/><text fill="#000000" font-family="sans-serif" font-size="13" lengthAdjust="spacing" textLength="195.0698" x="86.9346" y="377.5591">Object with src and alt strings</text><!--SRC=[ZP9DIyD048Rl-ok67hoLt0jHYXO98eeKn5EPRCPcj4tYpbYfzCURR9EIjP-dxCSxpxmxRofqofOhB1G6jwYG5Eybl58gh3G0b6vjgZtb4kS4ZsnTAUHMRBVw_a5ODCq9ciBnS-ALzTUOEAvRiZ8k-1ULomBYs9W-18RNZHH6S3-PGfGweamCMkKLAddARXCqRug6TN406y7OELp33siEdWLb-a5MnMGKG7lR0DjOVg6lRn8LRxQT4EotEcWuWErEkp67Bw-H7Vs0SL77nLoEEzriDXVQYqO5Bkc8oHDfSFCJI2I4pkOtdZNZJEBaxWehddtIEgxLiuV9MvZO-MmykStcVpGdXlJa2xO8SHQmo00NUdvMlOkMzWS0]--></g></svg>